<?xml version="1.0"?>
<svg version="1.1" xmlns="http://www.w3.org/2000/svg" width="800px" height="486px" style=""><path fill="#7d7d7d" d="M135.824,403.992q-6.912,10.656-6.912,13.824t2.592,4.608q0,0.288-5.184,4.32q-4.608,2.304-10.368,2.304t-8.352-1.296t-1.728-4.176q4.032-12.96,30.24-51.984t35.136-55.152q19.296-34.848,19.296-55.584q0-8.64-2.88-14.688q-5.76-11.808-27.36-11.808q-33.696,0-69.696,29.088q-28.8,23.328-44.064,49.392t-15.264,46.512q0,29.376,25.92,29.952l2.304,0q33.12,0,51.264-23.904q6.912-9.504,6.912-16.128t-2.88-8.352q-0.288-0.288-0.288-1.152t1.728-0.864q7.488,0,7.488,9.792q0,6.048-5.904,16.416t-20.88,19.584t-34.848,9.216t-31.68-12.384t-11.808-32.544q0-45.504,59.328-93.024q15.264-12.096,40.176-19.872t47.664-7.776t30.96,7.92t8.208,21.168q0,20.16-16.416,54.432q-5.184,10.656-23.328,38.88l22.176-28.224q16.128-21.024,55.872-59.904q8.64-8.352,19.152-13.968t18-5.616q10.368,0,10.368,10.944q0,9.504-9.072,28.656t-18.288,36.288t-11.232,22.464t-2.88,8.496t-1.152,3.456q0.864-1.44,19.008-22.032t53.568-51.408l46.08-38.016q5.472-4.608,9.792-4.608t7.056,7.2t2.736,11.664t-13.824,18.576q-36,36.864-61.056,80.64t-25.056,62.496q0,4.896,1.728,6.768t5.472,1.152t15.696-5.904t15.696-6.048q1.44,0.576,1.44,1.44q0,4.32-15.12,12.096t-22.752,7.776t-9.36-2.592q-5.184-7.488-5.184-18.144q0-24.768,26.496-71.136q16.992-29.088,52.416-78.336q-27.648,22.464-74.88,68.832t-61.92,72.576q-7.488,13.536-18.144,13.536q-4.896,0-4.896-3.456q0-1.152,5.904-10.368t26.064-43.2q49.536-86.112,49.536-103.68q0-4.608-3.168-4.608q-4.608,0-13.536,7.776q-31.968,26.784-67.968,69.984t-54.144,71.712z M424.59296,301.032q3.888,2.736,3.888,6.48t-3.6,6.48t-7.92,2.736t-7.92-3.168t-3.6-7.2q0-8.064,10.944-8.064q4.32,0,8.208,2.736z M364.25696,418.968q-14.688,0-14.688-19.008q0-15.552,16.992-43.056t27.36-27.792q2.88,0,6.48,2.304t3.6,4.608q-1.44,2.016-3.456,4.464t-4.32,5.328t-6.336,8.208t-7.776,10.224q-21.6,27.936-21.6,38.448t7.2,10.512q6.048,0,16.416-6.624q24.192-14.976,38.304-32.832q5.184-6.624,7.056-6.624t1.872,2.304t-6.624,9.216t-10.512,10.944t-5.328,5.328t-5.328,4.896t-5.904,5.04t-5.76,4.32t-6.624,4.176t-6.624,3.024q-6.048,2.592-14.4,2.592z M484.68992,411.48q-8.352,4.896-20.592,4.896t-18.72-8.064t-11.088-25.632q-5.184,5.184-7.2,5.184q-1.44,0-1.44-2.016t1.44-3.456q9.504-11.808,32.256-33.984l36.288-33.984q15.552-14.688,18.432-14.688q9.216,0,9.216,6.912q0,3.456-2.736,6.768t-4.032,5.184t-2.736,3.6q-5.184,8.928-10.512,36.864t-8.208,38.88q23.904-0.288,49.248-31.104q2.88-2.88,4.32-2.88t1.44,1.872t-2.592,5.04q-16.704,19.584-31.104,27.36q-8.64,4.32-22.464,7.2z M445.80992,379.512q0,9.792,6.48,15.984t14.544,6.192t12.384-3.168q5.76-3.168,11.376-26.496t6.768-41.184l1.152-9.792q-15.84,11.808-33.84,30.528t-18.576,24.768q-0.288,1.728-0.288,3.168z M616.06688,414.648q-16.992,0-16.992-19.872q0-11.232,7.92-24.912t19.44-32.112q-36.864,18.432-66.816,54.432q-16.704,25.056-19.584,25.056q-8.352,0-8.352-4.896q0-2.592,3.456-9.216q27.936-49.824,42.336-72.864q34.272-55.008,48.384-59.616q0.576-0.288,1.152-0.288q3.744,0,5.184,6.048q-0.864,6.048-29.952,43.776q-30.24,38.304-34.272,50.112q10.656-7.776,37.152-26.208q28.512-19.872,37.728-19.872t9.216,7.2q0,1.152-0.144,1.584t-20.016,27.216t-19.872,39.456q0,6.624,4.896,6.624q15.552-0.576,46.656-37.44q2.592-2.592,3.888-2.592t1.296,1.728q0,5.76-28.512,31.104q-17.856,15.552-24.192,15.552z M652.69184,449.208q13.824,17.28,23.904,17.28q16.416,0,35.424-26.208q13.824-19.296,27.072-48.672l10.944-26.496l-42.336,33.12q-19.584,15.264-31.392,15.264q-6.336,0-10.08-4.32t-3.744-9.792q0-12.384,21.312-40.752t31.104-28.368t9.792,6.624q0,2.592-25.488,29.808t-25.488,36.72q0,3.744,4.896,3.744q9.216,0,37.008-21.6t41.904-35.712q3.168-3.744,8.928-11.232q5.472-6.336,12.096-6.336t6.624,6.336q0,1.152-12.96,20.448t-13.536,20.448q-8.928,17.28-27.36,50.4q-27.936,44.928-55.872,44.928q-9.216,0-16.128-7.92t-6.624-17.712z"/><path fill="#" d=""/></svg>
